Coordinates
version=1
nRows=27
nColumns=38
inDegrees=no

Units are S.I. units (second, meters, Newtons, ...)
If the header above contains a line with 'inDegrees', this indicates whether rotational values are in degrees (yes) or radians (no).

endheader
time	pelvis_tilt	pelvis_list	pelvis_rotation	pelvis_tx	pelvis_ty	pelvis_tz	hip_flexion_r	hip_adduction_r	hip_rotation_r	knee_angle_r	ankle_angle_r	subtalar_angle_r	mtp_angle_r	hip_flexion_l	hip_adduction_l	hip_rotation_l	knee_angle_l	ankle_angle_l	subtalar_angle_l	mtp_angle_l	lumbar_extension	lumbar_bending	lumbar_rotation	arm_flex_r	arm_add_r	arm_rot_r	elbow_flex_r	pro_sup_r	wrist_flex_r	wrist_dev_r	arm_flex_l	arm_add_l	arm_rot_l	elbow_flex_l	pro_sup_l	wrist_flex_l	wrist_dev_l
2.5	0.0696418	-0.0133563	-0.0938187	0.706601	1.03357	-0.299467	-0.294263	0.00829708	0.0173191	-0.44048	-0.239611	-0.0146385	-0.0160191	0.276583	0.0327603	-0.0344822	-0.256139	0.0918694	-0.0220178	-0.0760301	-0.3275	-0.0489085	0.210276	-0.269503	-0.410867	-0.236065	1.90081	1.36852	-0.0176126	-0.0778727	-0.696529	-0.224085	-0.198206	1.71128	1.62594	0.0880775	-0.0808981
2.51	0.0733275	-0.0177662	-0.093748	0.706966	1.03174	-0.299553	-0.282966	0.00857427	0.0122681	-0.49809	-0.266671	-0.0146385	-0.0160191	0.268182	0.0309939	-0.0338314	-0.263603	0.0922366	-0.0220178	-0.0760301	-0.329239	-0.0465634	0.204881	-0.269957	-0.409023	-0.22968	1.89928	1.3702	-0.0176126	-0.0778727	-0.693066	-0.223767	-0.201359	1.71551	1.62539	0.0880775	-0.0808981
2.52	0.0777103	-0.019984	-0.0930083	0.707075	1.02899	-0.299717	-0.267202	0.00639101	0.00573741	-0.564429	-0.289315	-0.0146385	-0.0160191	0.260867	0.0315498	-0.0348013	-0.281702	0.0915669	-0.0220178	-0.0760301	-0.332108	-0.0464068	0.197429	-0.270674	-0.406223	-0.223301	1.89647	1.37142	-0.0176126	-0.0778727	-0.68548	-0.225137	-0.202845	1.71912	1.6252	0.0880775	-0.0808981
2.53	0.0826229	-0.0196673	-0.0915729	0.706904	1.02537	-0.299991	-0.247423	0.001408	-0.00205753	-0.637913	-0.306399	-0.0146385	-0.0160191	0.254979	0.0349975	-0.0363639	-0.309237	0.0916258	-0.0220178	-0.0760301	-0.336027	-0.0486811	0.187968	-0.271948	-0.402462	-0.217342	1.8924	1.37267	-0.0176126	-0.0778727	-0.673651	-0.228353	-0.202414	1.72178	1.62528	0.0880775	-0.0808981
2.54	0.0878606	-0.0166046	-0.0894508	0.706434	1.02093	-0.300392	-0.224077	-0.00648727	-0.0105894	-0.716798	-0.316553	-0.0146385	-0.0160191	0.250905	0.0417358	-0.0375495	-0.345075	0.0946789	-0.0220178	-0.0760301	-0.340872	-0.0535174	0.176616	-0.273989	-0.397711	-0.212202	1.88693	1.37442	-0.0176126	-0.0778727	-0.657393	-0.23346	-0.199786	1.72299	1.62557	0.0880775	-0.0808981
2.55	0.0932917	-0.0106909	-0.0866847	0.705667	1.01582	-0.300915	-0.197592	-0.0171699	-0.0190789	-0.799288	-0.318479	-0.0146385	-0.0160191	0.248858	0.0519687	-0.0376161	-0.387942	0.10298	-0.0220178	-0.0760301	-0.346549	-0.0609903	0.16342	-0.276763	-0.391916	-0.208058	1.87966	1.37703	-0.0176126	-0.0778727	-0.636562	-0.240319	-0.194812	1.72223	1.62606	0.0880775	-0.0808981
2.56	0.098719	-0.00203443	-0.083373	0.704611	1.0103	-0.301539	-0.168341	-0.0302315	-0.0265934	-0.883522	-0.311427	-0.0146385	-0.0160191	0.248703	0.0655861	-0.0361922	-0.43615	0.118106	-0.0220178	-0.0760301	-0.352914	-0.0709802	0.148691	-0.280289	-0.384958	-0.205155	1.87003	1.38067	-0.0176126	-0.0778727	-0.610834	-0.248768	-0.187189	1.71877	1.62682	0.0880775	-0.0808981
2.57	0.103955	0.0089988	-0.0796605	0.703264	1.00467	-0.302224	-0.136664	-0.0450144	-0.0322578	-0.967577	-0.295524	-0.0146385	-0.0160191	0.249857	0.0821152	-0.0333069	-0.48746	0.140496	-0.0220178	-0.0760301	-0.359778	-0.0831431	0.132988	-0.284664	-0.376681	-0.203743	1.8574	1.38529	-0.0176126	-0.0778727	-0.579773	-0.25862	-0.176514	1.71182	1.62804	0.0880775	-0.0808981
2.58	0.108909	0.0218311	-0.0757009	0.701618	0.999154	-0.302911	-0.102966	-0.0607275	-0.0355145	-1.04954	-0.271821	-0.0146385	-0.0160191	0.251271	0.10077	-0.029286	-0.53922	0.169384	-0.0220178	-0.0760301	-0.367043	-0.0969977	0.116772	-0.289812	-0.366995	-0.203698	1.84117	1.39055	-0.0176126	-0.0778727	-0.543207	-0.269531	-0.16268	1.70087	1.6301	0.0880775	-0.0808981
2.59	0.113512	0.0356504	-0.0716508	0.699696	0.993885	-0.303555	-0.0676789	-0.0764835	-0.0362492	-1.12753	-0.242135	-0.0146385	-0.0160191	0.251663	0.120452	-0.0245764	-0.588648	0.203074	-0.0220178	-0.0760301	-0.374604	-0.111822	0.100569	-0.295706	-0.3559	-0.204719	1.82091	1.39577	-0.0176126	-0.0778727	-0.501169	-0.28109	-0.145734	1.68573	1.63346	0.0880775	-0.0808981
2.6	0.117706	0.0495115	-0.0676316	0.697551	0.988986	-0.304128	-0.0312646	-0.0913806	-0.0348193	-1.19979	-0.208664	-0.0146385	-0.0160191	0.249754	0.13987	-0.0195508	-0.633218	0.23943	-0.0220178	-0.0760301	-0.382348	-0.126685	0.0848395	-0.302336	-0.343537	-0.206283	1.79653	1.40008	-0.0176126	-0.0778727	-0.45406	-0.292804	-0.126001	1.66669	1.63863	0.0880775	-0.0808981
2.61	0.121516	0.0624455	-0.0636732	0.695244	0.984618	-0.304588	0.00575624	-0.104644	-0.0319854	-1.26478	-0.173513	-0.0146385	-0.0160191	0.244438	0.157787	-0.0143722	-0.670952	0.276339	-0.0220178	-0.0760301	-0.390236	-0.140653	0.0695987	-0.309475	-0.330247	-0.207425	1.76833	1.40248	-0.0176126	-0.0778727	-0.402978	-0.304011	-0.104433	1.64483	1.64602	0.0880775	-0.0808981
2.62	0.12495	0.073568	-0.0597207	0.692842	0.980936	-0.304903	0.0428944	-0.115651	-0.0286977	-1.32124	-0.138418	-0.0146385	-0.0160191	0.234942	0.173141	-0.00896964	-0.700487	0.311962	-0.0220178	-0.0760301	-0.398162	-0.15281	0.0546905	-0.316964	-0.31649	-0.207185	1.73709	1.40211	-0.0176126	-0.0778727	-0.349425	-0.314021	-0.0822321	1.62176	1.65581	0.0880775	-0.0808981
2.63	0.127924	0.0822112	-0.0556703	0.690418	0.978052	-0.305089	0.0797442	-0.123961	-0.0258605	-1.36821	-0.104613	-0.0146385	-0.0160191	0.220867	0.185172	-0.00310854	-0.721008	0.344809	-0.0220178	-0.0760301	-0.4059	-0.162344	0.0399537	-0.324853	-0.302764	-0.204914	1.70405	1.39842	-0.0176126	-0.0778727	-0.295093	-0.32221	-0.0606028	1.59942	1.66784	0.0880775	-0.0808981
2.64	0.13027	0.088001	-0.0514124	0.688055	0.976038	-0.305189	0.116016	-0.129328	-0.0241362	-1.40506	-0.0728511	-0.0146385	-0.0160191	0.202171	0.193479	0.00348064	-0.732116	0.37372	-0.0220178	-0.0760301	-0.413082	-0.168643	0.0253188	-0.333442	-0.289541	-0.200443	1.67082	1.39136	-0.0176126	-0.0778727	-0.241678	-0.328095	-0.0405849	1.57983	1.68153	0.0880775	-0.0808981
2.65	0.131745	0.0908438	-0.0468766	0.685832	0.97493	-0.305248	0.151537	-0.131685	-0.023844	-1.43142	-0.0435057	-0.0146385	-0.0160191	0.179125	0.198002	0.010967	-0.733737	0.397806	-0.0220178	-0.0760301	-0.419223	-0.171362	0.0108464	-0.343221	-0.277201	-0.194098	1.63919	1.3814	-0.0176126	-0.0778727	-0.190748	-0.331382	-0.022957	1.56487	1.69592	0.0880775	-0.0808981
2.66	0.132063	0.0908601	-0.0420596	0.683819	0.974729	-0.305302	0.186204	-0.131061	-0.0249715	-1.44716	-0.0166923	-0.0146385	-0.0160191	0.152248	0.198903	0.0193405	-0.726101	0.416397	-0.0220178	-0.0760301	-0.423785	-0.170397	-0.00328013	-0.354754	-0.266005	-0.186607	1.61092	1.36945	-0.0176126	-0.0778727	-0.143637	-0.331996	-0.00819342	1.55611	1.70988	0.0880775	-0.0808981
2.67	0.130951	0.0882803	-0.0370292	0.682074	0.975396	-0.305383	0.219937	-0.127506	-0.0272712	-1.45231	0.00760834	-0.0146385	-0.0160191	0.122257	0.196438	0.0283806	-0.709749	0.428995	-0.0220178	-0.0760301	-0.42626	-0.165828	-0.0167999	-0.368522	-0.256082	-0.178913	1.58752	1.35675	-0.0176126	-0.0778727	-0.101384	-0.330096	0.00354562	1.55457	1.72226	0.0880775	-0.0808981
2.68	0.128189	0.0833541	-0.0319092	0.680632	0.976861	-0.305504	0.252623	-0.121065	-0.0303894	-1.44701	0.0294408	-0.0146385	-0.0160191	0.0900026	0.190859	0.0376673	-0.68556	0.435229	-0.0220178	-0.0760301	-0.426245	-0.157865	-0.0294395	-0.384797	-0.24743	-0.17197	1.57	1.34464	-0.0176126	-0.0778727	-0.0646909	-0.326069	0.0124001	1.56073	1.73207	0.0880775	-0.0808981
2.69	0.123652	0.0763166	-0.0268576	0.679515	0.979031	-0.305649	0.284074	-0.111801	-0.0339743	-1.43141	0.0487812	-0.0146385	-0.0160191	0.0564171	0.182387	0.0466233	-0.654746	0.434842	-0.0220178	-0.0760301	-0.423503	-0.146822	-0.0409775	-0.403566	-0.239936	-0.166571	1.55881	1.33437	-0.0176126	-0.0778727	-0.0339095	-0.320498	0.0187723	1.57444	1.73863	0.0880775	-0.0808981
2.7	0.11733	0.0674051	-0.0220457	0.678723	0.981804	-0.305786	0.31401	-0.0998503	-0.0377279	-1.40568	0.0654734	-0.0146385	-0.0160191	0.0224535	0.17125	0.054574	-0.618811	0.427686	-0.0220178	-0.0760301	-0.417993	-0.133122	-0.051289	-0.424514	-0.233392	-0.163231	1.55378	1.32691	-0.0176126	-0.0778727	-0.00905915	-0.314106	0.0232629	1.59504	1.7416	0.0880775	-0.0808981
2.71	0.109353	0.0568835	-0.0176287	0.678241	0.985072	-0.305874	0.342016	-0.0854604	-0.0414115	-1.36995	0.0792119	-0.0146385	-0.0160191	-0.0109987	0.157733	0.0608491	-0.579463	0.413739	-0.0220178	-0.0760301	-0.409899	-0.117278	-0.0603687	-0.44708	-0.227531	-0.162145	1.5542	1.32283	-0.0176126	-0.0778727	0.0101332	-0.307668	0.0265798	1.62146	1.74103	0.0880775	-0.0808981
2.72	0.0999834	0.0450735	-0.0137226	0.678038	0.988733	-0.305868	0.367542	-0.0690154	-0.0448118	-1.32429	0.0895941	-0.0146385	-0.0160191	-0.0431982	0.142223	0.0648764	-0.538467	0.393123	-0.0220178	-0.0760301	-0.399612	-0.0998835	-0.0683275	-0.470545	-0.222066	-0.163205	1.55901	1.3222	-0.0176126	-0.0778727	0.0241659	-0.301921	0.0294362	1.65241	1.73737	0.0880775	-0.0808981
2.73	0.0896009	0.0323745	-0.0103878	0.678083	0.992699	-0.30574	0.389928	-0.0510354	-0.0476917	-1.26876	0.0962292	-0.0146385	-0.0160191	-0.0736159	0.125231	0.0662543	-0.497484	0.366112	-0.0220178	-0.0760301	-0.387683	-0.0815919	-0.0753651	-0.494138	-0.216725	-0.166072	1.56695	1.32463	-0.0176126	-0.0778727	0.0336872	-0.297475	0.0324626	1.68647	1.73138	0.0880775	-0.0808981
2.74	0.0786655	0.0192718	-0.00762476	0.678349	0.99689	-0.305475	0.408468	-0.0321608	-0.0497538	-1.20349	0.0988773	-0.0146385	-0.0160191	-0.101961	0.107393	0.0647952	-0.457942	0.33314	-0.0220178	-0.0760301	-0.374753	-0.0630913	-0.0817253	-0.51714	-0.211277	-0.17027	1.57677	1.32935	-0.0176126	-0.0778727	0.0394265	-0.29476	0.0361553	1.72225	1.72408	0.0880775	-0.0808981
2.75	0.0676699	0.00635639	-0.00538446	0.678813	1.00122	-0.305082	0.422498	-0.0131253	-0.0506339	-1.12881	0.0975908	-0.0146385	-0.0160191	-0.128155	0.0894382	0.0605442	-0.420985	0.294825	-0.0220178	-0.0760301	-0.361471	-0.0450733	-0.0876392	-0.538966	-0.205547	-0.175297	1.5874	1.33542	-0.0176126	-0.0778727	0.0421419	-0.293992	0.0408654	1.75844	1.71663	0.0880775	-0.0808981
2.76	0.0570751	-0.00576124	-0.00357522	0.679454	1.00561	-0.304585	0.431483	0.00528837	-0.049919	-1.0454	0.0928158	-0.0146385	-0.0160191	-0.152271	0.0721646	0.0537847	-0.387526	0.252003	-0.0220178	-0.0760301	-0.348452	-0.0282208	-0.0932814	-0.559202	-0.199414	-0.180711	1.59799	1.34181	-0.0176126	-0.0778727	0.0425819	-0.295182	0.046815	1.79387	1.71014	0.0880775	-0.0808981
